<svg width="25" height="25" viewBox="0 0 25 25" fill="none" xmlns="http://www.w3.org/2000/svg">
<mask id="mask0_3456_27" style="mask-type:alpha" maskUnits="userSpaceOnUse" x="0" y="0" width="25" height="25">
<rect x="0.216431" y="0.167343" width="24" height="24" fill="#D9D9D9"/>
</mask>
<g mask="url(#mask0_3456_27)">
<path d="M12.2164 22.1673C9.5331 19.884 7.52893 17.7632 6.20393 15.8048C4.87893 13.8465 4.21643 12.034 4.21643 10.3673C4.21643 7.86734 5.0206 5.87568 6.62893 4.39234C8.23726 2.90901 10.0998 2.16734 12.2164 2.16734H12.7164C12.8831 2.16734 13.0498 2.18401 13.2164 2.21734V4.24234C13.0498 4.20901 12.8873 4.18818 12.7289 4.17984C12.5706 4.17151 12.3998 4.16734 12.2164 4.16734C10.5331 4.16734 9.11226 4.74651 7.95393 5.90484C6.7956 7.06318 6.21643 8.55068 6.21643 10.3673C6.21643 11.5507 6.7081 12.9048 7.69143 14.4298C8.67476 15.9548 10.1831 17.6507 12.2164 19.5173C14.2498 17.6507 15.7581 15.9548 16.7414 14.4298C17.7248 12.9048 18.2164 11.5507 18.2164 10.3673V10.1673H20.2164V10.3673C20.2164 12.034 19.5539 13.8465 18.2289 15.8048C16.9039 17.7632 14.8998 19.884 12.2164 22.1673ZM12.2164 12.1673C12.7664 12.1673 13.2373 11.9715 13.6289 11.5798C14.0206 11.1882 14.2164 10.7173 14.2164 10.1673C14.2164 9.61734 14.0206 9.14651 13.6289 8.75484C13.2373 8.36318 12.7664 8.16734 12.2164 8.16734C11.6664 8.16734 11.1956 8.36318 10.8039 8.75484C10.4123 9.14651 10.2164 9.61734 10.2164 10.1673C10.2164 10.7173 10.4123 11.1882 10.8039 11.5798C11.1956 11.9715 11.6664 12.1673 12.2164 12.1673ZM18.2164 8.16734H20.2164V5.16734H23.2164V3.16734H20.2164V0.167343H18.2164V3.16734H15.2164V5.16734H18.2164V8.16734Z" fill="#1C1B1F"/>
</g>
</svg>
