<svg width="25" height="25" viewBox="0 0 25 25" fill="none" xmlns="http://www.w3.org/2000/svg">
<mask id="mask0_3456_33" style="mask-type:alpha" maskUnits="userSpaceOnUse" x="0" y="0" width="25" height="25">
<rect x="0.216431" y="0.167343" width="24" height="24" fill="#D9D9D9"/>
</mask>
<g mask="url(#mask0_3456_33)">
<path d="M8.21643 23.1673C7.66643 23.1673 7.1956 22.9715 6.80393 22.5798C6.41226 22.1882 6.21643 21.7173 6.21643 21.1673V17.1673H8.21643V18.1673H18.2164V6.16734H8.21643V7.16734H6.21643V3.16734C6.21643 2.61734 6.41226 2.14651 6.80393 1.75484C7.1956 1.36318 7.66643 1.16734 8.21643 1.16734H18.2164C18.7664 1.16734 19.2373 1.36318 19.6289 1.75484C20.0206 2.14651 20.2164 2.61734 20.2164 3.16734V21.1673C20.2164 21.7173 20.0206 22.1882 19.6289 22.5798C19.2373 22.9715 18.7664 23.1673 18.2164 23.1673H8.21643ZM8.21643 20.1673V21.1673H18.2164V20.1673H8.21643ZM4.61643 17.1673L3.21643 15.7673L8.81643 10.1673H5.21643V8.16734H12.2164V15.1673H10.2164V11.5673L4.61643 17.1673ZM8.21643 4.16734H18.2164V3.16734H8.21643V4.16734Z" fill="#1C1B1F"/>
</g>
</svg>
