<svg width="40" height="40" viewBox="0 0 40 40" fill="none" xmlns="http://www.w3.org/2000/svg">
<rect x="0.5" y="0.5" width="39" height="39" rx="19.5" stroke="#F5F5F5"/>
<mask id="mask0_5419_3" style="mask-type:alpha" maskUnits="userSpaceOnUse" x="8" y="8" width="24" height="24">
<rect x="8" y="8" width="24" height="24" fill="#D9D9D9"/>
</mask>
<g mask="url(#mask0_5419_3)">
<path d="M20.0043 28.7C18.8015 28.7 17.6704 28.4731 16.611 28.0192C15.5517 27.5656 14.6303 26.9497 13.8468 26.1717C13.0631 25.3939 12.4428 24.4792 11.9858 23.4275C11.5286 22.3758 11.3 21.25 11.3 20.05C11.3 19.4812 11.35 18.9223 11.45 18.3735C11.55 17.8245 11.7 17.2833 11.9 16.75L12.45 17.3C12.3 17.7333 12.1875 18.1763 12.1125 18.629C12.0375 19.0815 12 19.5385 12 20C12 22.2333 12.775 24.125 14.325 25.675C15.875 27.225 17.7667 28 20 28C22.2334 28 24.125 27.225 25.675 25.675C27.225 24.125 28 22.2333 28 20C28 17.7667 27.225 15.875 25.675 14.325C24.125 12.775 22.2334 12 20 12C19.55 12 19.1042 12.0375 18.6625 12.1125C18.2209 12.1875 17.7834 12.3 17.35 12.45L16.8 11.9C17.2834 11.7167 17.7792 11.5708 18.2875 11.4625C18.7959 11.3542 19.3167 11.3 19.85 11.3C21.0702 11.3 22.217 11.525 23.2903 11.975C24.3635 12.425 25.3 13.0458 26.1 13.8375C26.9 14.6292 27.5334 15.5534 28 16.6102C28.4667 17.6669 28.7 18.7961 28.7 19.9977C28.7 21.1992 28.4718 22.3297 28.0153 23.389C27.5588 24.4483 26.9392 25.3697 26.1565 26.1532C25.3739 26.9369 24.4536 27.5572 23.3958 28.0142C22.3378 28.4714 21.2073 28.7 20.0043 28.7ZM14.05 14.75C13.8667 14.75 13.7042 14.6792 13.5625 14.5375C13.4209 14.3958 13.35 14.2333 13.35 14.05C13.35 13.8667 13.4209 13.7042 13.5625 13.5625C13.7042 13.4208 13.8667 13.35 14.05 13.35C14.2334 13.35 14.3959 13.4208 14.5375 13.5625C14.6792 13.7042 14.75 13.8667 14.75 14.05C14.75 14.2333 14.6792 14.3958 14.5375 14.5375C14.3959 14.6792 14.2334 14.75 14.05 14.75ZM14 20C14 18.3333 14.5834 16.9167 15.75 15.75C16.9167 14.5833 18.3334 14 20 14C21.6667 14 23.0834 14.5833 24.25 15.75C25.4167 16.9167 26 18.3333 26 20C26 21.6667 25.4167 23.0833 24.25 24.25C23.0834 25.4167 21.6667 26 20 26C18.3334 26 16.9167 25.4167 15.75 24.25C14.5834 23.0833 14 21.6667 14 20Z" fill="#F5F5F5"/>
</g>
</svg>
