<svg width="1304" height="734" viewBox="0 0 1304 734" fill="none" xmlns="http://www.w3.org/2000/svg">
<path fill-rule="evenodd" clip-rule="evenodd" d="M1304 4C1304 1.79086 1302.21 0 1300 0H4C1.79086 0 0 1.79084 0 3.99998V729.138C0 731.347 1.79087 733.138 4.00001 733.138H1300C1302.21 733.138 1304 731.347 1304 729.138V4ZM1300 6C1300 3.79086 1298.21 2 1296 2H8C5.79086 2 4 3.79084 4 5.99998V726.64C4 728.849 5.7909 730.64 8.00004 730.64H1296C1298.21 730.64 1300 728.849 1300 726.64V6Z" fill="#050505"/>
<path fill-rule="evenodd" clip-rule="evenodd" d="M1300 6C1300 3.79086 1298.21 2 1296 2H8C5.79086 2 4 3.79087 4 6.00001V73.6212C4 35.4351 37.0658 5.65699 75.0575 9.50543C200.34 22.1962 464.934 46.528 652 46.528C839.066 46.528 1103.66 22.1962 1228.94 9.50542C1266.93 5.65697 1300 35.4352 1300 73.6212V6ZM1300 661.884C1300 699.034 1268.58 728.426 1231.51 726.029C1107.31 718.002 840.353 702.304 652 702.304C463.647 702.304 196.694 718.002 72.4902 726.029C35.4176 728.426 4 699.034 4 661.884V726.64C4 728.849 5.7909 730.64 8.00004 730.64H1296C1298.21 730.64 1300 728.849 1300 726.64V661.884Z" fill="#050505"/>
</svg>
