<svg width="25" height="25" viewBox="0 0 25 25" fill="none" xmlns="http://www.w3.org/2000/svg">
<mask id="mask0_3456_21" style="mask-type:alpha" maskUnits="userSpaceOnUse" x="0" y="0" width="25" height="25">
<rect x="0.216431" y="0.167343" width="24" height="24" fill="#D9D9D9"/>
</mask>
<g mask="url(#mask0_3456_21)">
<path d="M16.1664 22.1673L11.9164 17.9173L13.3164 16.5173L16.1664 19.3673L21.8164 13.7173L23.2164 15.1173L16.1664 22.1673ZM12.2164 11.1673L20.2164 6.16734H4.21643L12.2164 11.1673ZM12.2164 13.1673L4.21643 8.16734V18.1673H9.36643L11.3664 20.1673H4.21643C3.66643 20.1673 3.1956 19.9715 2.80393 19.5798C2.41226 19.1882 2.21643 18.7173 2.21643 18.1673V6.16734C2.21643 5.61734 2.41226 5.14651 2.80393 4.75484C3.1956 4.36318 3.66643 4.16734 4.21643 4.16734H20.2164C20.7664 4.16734 21.2373 4.36318 21.6289 4.75484C22.0206 5.14651 22.2164 5.61734 22.2164 6.16734V10.5173L20.2164 12.5173V8.16734L12.2164 13.1673Z" fill="#1C1B1F"/>
</g>
</svg>
