<svg width="251" height="53" viewBox="0 0 251 53" fill="none" xmlns="http://www.w3.org/2000/svg">
<g clip-path="url(#clip0_95_23)">
<path d="M4.89 17.03C4.89 10.064 9.102 6.5 16.77 6.5C24.222 6.5 28.218 9.686 28.272 15.95L28.326 22.43L19.2 22.484V18.164C19.2 16.112 18.39 15.194 16.77 15.194C15.258 15.194 14.502 16.112 14.502 18.164V35.876C14.502 37.928 15.258 38.846 16.77 38.846C18.39 38.846 19.2 37.928 19.2 35.876V30.53L28.326 30.584L28.272 38.09C28.218 44.354 24.222 47.54 16.77 47.54C9.102 47.54 4.89 43.976 4.89 37.01V17.03ZM32.6473 47V7.04H45.4453C53.4913 7.04 57.2173 10.712 57.2173 17.948C57.2173 23.294 55.3273 26.048 51.7633 27.506C54.8413 29.342 56.4613 32.042 56.5153 35.876L56.5693 40.088C56.6233 42.95 57.0013 44.624 58.8373 46.298V47H48.7933C47.1733 45.326 46.7953 43.49 46.7953 40.574V35.876C46.7953 32.474 45.4993 31.502 42.9613 31.502H42.2593V47H32.6473ZM42.2593 23.996H43.9873C46.2553 23.996 47.4433 23.024 47.4433 19.298C47.4433 15.572 46.2553 14.6 43.9873 14.6H42.2593V23.996ZM58.5757 47L66.0817 7.04H78.5017L86.0077 47H76.2877L75.4237 41.114H69.1597L68.2957 47H58.5757ZM69.9157 33.554H74.6677L72.7237 19.892L72.3457 17.084H72.2377L71.8597 19.892L69.9157 33.554ZM88.9802 47V7.04H109.338V15.572H98.5922V23.726H108.636V32.042H98.5922V47H88.9802ZM134.517 7.04V15.14H127.065V47H117.345V15.14H109.893V7.04H134.517ZM142.641 47L135.351 7.04H144.423L147.771 28.478H148.203L151.605 7.04H158.949L162.351 28.478H162.783L166.131 7.04H175.203L167.913 47H159.975L155.655 26.696H154.899L150.579 47H142.641ZM171.955 47L179.461 7.04H191.881L199.387 47H189.667L188.803 41.114H182.539L181.675 47H171.955ZM183.295 33.554H188.047L186.103 19.892L185.725 17.084H185.617L185.239 19.892L183.295 33.554ZM205.2 47L196.938 7.04H205.848L209.844 29.882H210.6L214.596 7.04H223.506L215.244 47H205.2ZM225.391 47V7.04H245.641V15.086H234.949V22.7H243.859V30.638H234.949V38.576H245.965V47H225.391Z" fill="#FAFAFA"/>
</g>
<defs>
<clipPath id="clip0_95_23">
<rect width="251" height="53" fill="white"/>
</clipPath>
</defs>
</svg>
