<svg width="74" height="53" viewBox="0 0 74 53" fill="none" xmlns="http://www.w3.org/2000/svg">
<g clip-path="url(#clip0_94_26)">
<path d="M4.89 17.03C4.89 10.064 9.102 6.5 16.77 6.5C24.222 6.5 28.218 9.686 28.272 15.95L28.326 22.43L19.2 22.484V18.164C19.2 16.112 18.39 15.194 16.77 15.194C15.258 15.194 14.502 16.112 14.502 18.164V35.876C14.502 37.928 15.258 38.846 16.77 38.846C18.39 38.846 19.2 37.928 19.2 35.876V30.53L28.326 30.584L28.272 38.09C28.218 44.354 24.222 47.54 16.77 47.54C9.102 47.54 4.89 43.976 4.89 37.01V17.03ZM36.6973 47L29.4073 7.04H38.4793L41.8273 28.478H42.2593L45.6613 7.04H53.0053L56.4073 28.478H56.8393L60.1873 7.04H69.2593L61.9693 47H54.0313L49.7113 26.696H48.9553L44.6353 47H36.6973Z" fill="#FAFAFA"/>
</g>
<defs>
<clipPath id="clip0_94_26">
<rect width="74" height="53" fill="white"/>
</clipPath>
</defs>
</svg>
